<svg xmlns="http://www.w3.org/2000/svg" width="900" height="650" viewBox="0 0 900 650">
  <defs>
    <linearGradient id="g" x1="0" x2="1" y1="0" y2="1">
      <stop offset="0%" stop-color="#f6d365"/>
      <stop offset="100%" stop-color="#fda085"/>
    </linearGradient>
    <filter id="shadow" x="-20%" y="-20%" width="140%" height="140%">
      <feDropShadow dx="0" dy="18" stdDeviation="20" flood-color="#ff2e74" flood-opacity="0.22"/>
    </filter>
  </defs>
  <rect width="900" height="650" rx="44" fill="url(#g)"/>
  <circle cx="160" cy="120" r="86" fill="#ffffff" opacity="0.25"/>
  <circle cx="760" cy="520" r="130" fill="#ffffff" opacity="0.22"/>
  <path d="M450 466 C330 384 242 322 242 220 C242 150 294 106 358 106 C400 106 431 128 450 158 C469 128 500 106 542 106 C606 106 658 150 658 220 C658 322 570 384 450 466Z" fill="#fff" opacity="0.78" filter="url(#shadow)"/>
  <text x="450" y="530" text-anchor="middle" font-family="Arial, sans-serif" font-size="46" font-weight="800" fill="#ffffff">Photo 5</text>
  <text x="450" y="580" text-anchor="middle" font-family="Arial, sans-serif" font-size="26" fill="#ffffff" opacity="0.92">Replace with your memory</text>
</svg>